#!OML:ASF E:\Style4\Style4.ASF
:FULLY-SPECIFIED
:DEGREES
1625
root -0.135078 18.0728 -1.24072 5.08133 -1.90836 2.19493
lowerback 3.75731 1.56419 -0.247119
upperback -1.3157 2.08359 0.266452
thorax -3.47871 1.04553 0.272567
lowerneck 1.98277 -3.52339 -6.68628
upperneck 5.60744 -4.96017 4.96912
head 1.76225 -2.53709 2.71107
rclavicle -2.21645e-014 2.38542e-015
rhumerus -90.1317 55.6352 -124.142
rradius 86.5461
rwrist -3.27229
rhand -7.35283 33.291
rfingers 7.12502
rthumb 18.5315 4.15368
lclavicle -2.21645e-014 2.38542e-015
lhumerus -33.6625 15.6764 26.3255
lradius 117.219
lwrist -16.4931
lhand -12.4992 34.6439
lfingers 7.12502
lthumb 13.5759 64.1813
rfemur -10.5106 3.6846 16.0762
rtibia 22.6485
rfoot -16.3466 -15.6686
rtoes -9.5501
lfemur -7.26258 -3.11719 -21.1861
ltibia 18.2892
lfoot -15.9665 11.3378
ltoes -14.9447
1626
root -0.136889 18.0723 -1.24096 5.06365 -1.89994 2.14341
lowerback 3.78635 1.55813 -0.221377
upperback -1.30737 2.07676 0.26657
thorax -3.4855 1.04153 0.258039
lowerneck 1.95178 -3.55161 -6.63421
upperneck 5.66736 -4.99574 4.93516
head 1.78669 -2.55417 2.68858
rclavicle 3.46134e-014 1.19271e-014
rhumerus -90.0817 55.6195 -124.097
rradius 86.5581
rwrist -3.30825
rhand -7.17497 33.3058
rfingers 7.12502
rthumb 18.7025 4.18485
lclavicle 3.46134e-014 1.19271e-014
lhumerus -33.6589 15.6912 26.2873
lradius 117.254
lwrist -16.37
lhand -12.501 34.7614
lfingers 7.12502
lthumb 13.5742 64.2989
rfemur -10.4689 3.70269 16.1425
rtibia 22.6221
rfoot -16.3708 -15.6778
rtoes -9.62129
lfemur -7.26243 -3.11383 -21.1197
ltibia 18.3282
lfoot -15.9581 11.3165
ltoes -14.8381
1627
root -0.139338 18.0712 -1.2417 5.05565 -1.9209 2.06361
lowerback 3.8096 1.5547 -0.175292
upperback -1.29354 2.07504 0.2832
thorax -3.48329 1.03981 0.249035
lowerneck 1.95783 -3.5651 -6.62098
upperneck 5.6329 -5.01244 4.91883
head 1.77441 -2.56234 2.68049
rclavicle -9.19379e-015 -1.19271e-015
rhumerus -89.9864 55.6387 -123.996
rradius 86.5461
rwrist -3.30503
rhand -6.90147 33.3279
rfingers 7.12502
rthumb 18.9656 4.23257
lclavicle -9.19379e-015 -1.19271e-015
lhumerus -33.6594 15.7404 26.2441
lradius 117.251
lwrist -16.3349
lhand -12.5028 34.7899
lfingers 7.12502
lthumb 13.5725 64.3275
rfemur -10.4599 3.71816 16.2412
rtibia 22.6094
rfoot -16.3478 -15.6986
rtoes -9.71626
lfemur -7.2663 -3.07709 -21.0214
ltibia 18.3466
lfoot -15.9506 11.2632
ltoes -14.8555
1628
root -0.143001 18.0715 -1.24125 5.09044 -1.97918 2.09
lowerback 3.76525 1.56249 -0.264672
upperback -1.28918 2.08011 0.260172
thorax -3.45615 1.04406 0.276401
lowerneck 2.03194 -3.56847 -6.58014
upperneck 5.54519 -5.01781 4.89522
head 1.73072 -2.56493 2.66637
rclavicle 2.11209e-015 -3.18055e-015
rhumerus -89.9321 55.6728 -123.95
rradius 86.533
rwrist -3.32739
rhand -6.81899 33.2958
rfingers 7.12502
rthumb 19.0449 4.20827
lclavicle 2.11209e-015 -3.18055e-015
lhumerus -33.6333 15.7802 26.148
lradius 117.221
lwrist -16.3516
lhand -12.4254 34.8097
lfingers 7.12502
lthumb 13.6471 64.3423
rfemur -10.5131 3.75255 16.2163
rtibia 22.6103
rfoot -16.3132 -15.6614
rtoes -9.37814
lfemur -7.29502 -3.0591 -21.0418
ltibia 18.3321
lfoot -15.9996 11.3011
ltoes -15.0591
1629
root -0.148841 18.0735 -1.23982 5.09044 -2.02791 2.19741
lowerback 3.74951 1.57559 -0.463504
upperback -1.27402 2.08605 0.217691
thorax -3.43727 1.05082 0.344256
lowerneck 1.93697 -3.58425 -6.63622
upperneck 5.66776 -5.03799 4.92344
head 1.79186 -2.57528 2.68397
rclavicle 1.06598e-014 -4.37326e-015
rhumerus -89.8425 55.6547 -123.865
rradius 86.5213
rwrist -3.34046
rhand -6.82466 33.3155
rfingers 7.12502
rthumb 19.0394 4.22742
lclavicle 1.06598e-014 -4.37326e-015
lhumerus -33.59 15.8626 26.098
lradius 117.176
lwrist -16.4017
lhand -12.2768 34.8057
lfingers 7.12502
lthumb 13.7903 64.3286
rfemur -10.5265 3.79454 16.113
rtibia 22.6248
rfoot -16.3105 -15.6371
rtoes -9.05428
lfemur -7.2412 -3.07707 -21.1435
ltibia 18.2582
lfoot -16.0796 11.3514
ltoes -14.9449
1630
root -0.153723 18.0751 -1.23795 5.09017 -2.05226 2.25411
lowerback 3.73993 1.56362 -0.619014
upperback -1.2667 2.06179 0.205173
thorax -3.42915 1.04194 0.4204
lowerneck 1.80265 -3.5811 -6.7467
upperneck 5.82811 -5.03259 4.97318
head 1.87358 -2.57349 2.71876
rclavicle 1.39149e-014 -1.39149e-014
rhumerus -89.855 55.6832 -123.83
rradius 86.5225
rwrist -3.35596
rhand -6.90472 33.3938
rfingers 7.12502
rthumb 18.9625 4.29811
lclavicle 1.39149e-014 -1.39149e-014
lhumerus -33.6357 15.9442 26.0158
lradius 117.18
lwrist -16.4196
lhand -12.1621 34.7436
lfingers 7.12502
lthumb 13.9008 64.259
rfemur -10.5247 3.80499 16.0754
rtibia 22.6427
rfoot -16.3229 -15.6825
rtoes -9.29366
lfemur -7.1759 -3.10149 -21.1908
ltibia 18.1521
lfoot -16.0494 11.4102
ltoes -14.8141
1631
root -0.158323 18.0764 -1.23656 5.09841 -2.06055 2.28547
lowerback 3.74782 1.55767 -0.741845
upperback -1.27964 2.04685 0.18374
thorax -3.45037 1.03698 0.467601
lowerneck 1.78532 -3.60019 -6.76677
upperneck 5.85123 -5.05677 4.95366
head 1.88586 -2.58622 2.71504
rclavicle -3.28989e-014 -4.77083e-015
rhumerus -89.92 55.6991 -123.874
rradius 86.4943
rwrist -3.41646
rhand -7.08925 33.3669
rfingers 7.12502
rthumb 18.785 4.25395
lclavicle -3.28989e-014 -4.77083e-015
lhumerus -33.6715 15.9563 25.925
lradius 117.169
lwrist -16.4392
lhand -12.2842 34.7481
lfingers 7.12502
lthumb 13.7831 64.2715
rfemur -10.5081 3.87461 16.0617
rtibia 22.6307
rfoot -16.343 -15.7586
rtoes -9.43731
lfemur -7.13053 -3.10117 -21.2026
ltibia 18.0566
lfoot -16.0252 11.4149
ltoes -14.7345
